ffmpeg started on 2016-12-07 at 01:47:23
Report written to "Output/x264/results/ffmpeg/sintelmedium13000k.log"
Command line:
Tools/ffmpeg/ffmpeg -benchmark -y -i Input/y4m/sintel.y4m -c:v libx264 -preset medium -b:v 13000k -an Output/x264/encoded/sintelmedium13000k.mkv
ffmpeg version N-82227-gdb23fde Copyright (c) 2000-2016 the FFmpeg developers
  built with gcc 5.4.0 (Ubuntu 5.4.0-6ubuntu1~16.04.2) 20160609
  configuration: --prefix=/home/jaroslav/ffmpeg_build --pkg-config-flags=--static --extra-cflags=-I/home/jaroslav/ffmpeg_build/include --extra-ldflags=-L/home/jaroslav/ffmpeg_build/lib --bindir=/home/jaroslav/bin --enable-gpl --enable-libass --enable-libfdk-aac --enable-libfreetype --enable-libmp3lame --enable-libopus --enable-libtheora --enable-libvorbis --enable-libvpx --enable-libx264 --enable-libx265 --enable-nvenc --enable-libmfx --enable-libxvid --enable-libgsm --enable-libopencore-amrnb --enable-version3 --enable-nonfree
  libavutil      55. 35.100 / 55. 35.100
  libavcodec     57. 66.101 / 57. 66.101
  libavformat    57. 57.100 / 57. 57.100
  libavdevice    57.  2.100 / 57.  2.100
  libavfilter     6. 66.100 /  6. 66.100
  libswscale      4.  3.100 /  4.  3.100
  libswresample   2.  4.100 /  2.  4.100
  libpostproc    54.  2.100 / 54.  2.100
Input #0, yuv4mpegpipe, from 'Input/y4m/sintel.y4m':
  Duration: 00:00:20.83, start: 0.000000, bitrate: 2057307 kb/s
    Stream #0:0: Video: rawvideo (I420 / 0x30323449), yuv420p(progressive), 4096x1744, SAR 1:1 DAR 256:109, 24 fps, 24 tbr, 24 tbn, 24 tbc
[libx264 @ 0x42aa1c0] using SAR=1/1
[libx264 @ 0x42aa1c0] using cpu capabilities: MMX2 SSE2Fast SSSE3 SSE4.2 AVX FMA3 AVX2 LZCNT BMI2
[libx264 @ 0x42aa1c0] profile High, level 5.1
[libx264 @ 0x42aa1c0] 264 - core 148 - H.264/MPEG-4 AVC codec - Copyleft 2003-2016 - http://www.videolan.org/x264.html - options: cabac=1 ref=3 deblock=1:0:0 analyse=0x3:0x113 me=hex subme=7 psy=1 psy_rd=1.00:0.00 mixed_ref=1 me_range=16 chroma_me=1 trellis=1 8x8dct=1 cqm=0 deadzone=21,11 fast_pskip=1 chroma_qp_offset=-2 threads=6 lookahead_threads=1 sliced_threads=0 nr=0 decimate=1 interlaced=0 bluray_compat=0 constrained_intra=0 bframes=3 b_pyramid=2 b_adapt=1 b_bias=0 direct=1 weightb=1 open_gop=0 weightp=2 keyint=250 keyint_min=24 scenecut=40 intra_refresh=0 rc_lookahead=40 rc=abr mbtree=1 bitrate=13000 ratetol=1.0 qcomp=0.60 qpmin=0 qpmax=69 qpstep=4 ip_ratio=1.40 aq=1:1.00
Output #0, matroska, to 'Output/x264/encoded/sintelmedium13000k.mkv':
  Metadata:
    encoder         : Lavf57.57.100
    Stream #0:0: Video: h264 (libx264) (H264 / 0x34363248), yuv420p, 4096x1744 [SAR 1:1 DAR 256:109], q=-1--1, 13000 kb/s, 24 fps, 1k tbn, 24 tbc
    Metadata:
      encoder         : Lavc57.66.101 libx264
    Side data:
      cpb: bitrate max/min/avg: 0/0/13000000 buffer size: 0 vbv_delay: -1
Stream mapping:
  Stream #0:0 -> #0:0 (rawvideo (native) -> h264 (libx264))
Press [q] to stop, [?] for help
frame=    9 fps=0.0 q=0.0 size=       0kB time=00:00:00.00 bitrate=N/A speed=   0x    frame=   18 fps= 17 q=0.0 size=       0kB time=00:00:00.00 bitrate=N/A speed=   0x    frame=   27 fps= 17 q=0.0 size=       0kB time=00:00:00.00 bitrate=N/A speed=   0x    frame=   36 fps= 17 q=0.0 size=       0kB time=00:00:00.00 bitrate=N/A speed=   0x    frame=   40 fps=7.1 q=0.0 size=       0kB time=00:00:00.00 bitrate=N/A speed=   0x    frame=   41 fps=4.5 q=0.0 size=       0kB time=00:00:00.00 bitrate=N/A speed=   0x    frame=   42 fps=3.5 q=0.0 size=       0kB time=00:00:00.00 bitrate=N/A speed=   0x    frame=   47 fps=3.3 q=0.0 size=       0kB time=00:00:00.00 bitrate=N/A speed=   0x    frame=   49 fps=3.3 q=0.0 size=       0kB time=00:00:00.00 bitrate=N/A speed=   0x    frame=   53 fps=3.4 q=23.0 size=       1kB time=00:00:00.00 bitrate=5872.0kbits/s speed=6.48e-05x    frame=   54 fps=3.4 q=32.0 size=       1kB time=00:00:00.04 bitrate= 136.6kbits/s speed=0.00268x    frame=   58 fps=3.5 q=40.0 size=       1kB time=00:00:00.20 bitrate=  28.1kbits/s speed=0.0125x    frame=   61 fps=3.5 q=40.0 size=       1kB time=00:00:00.33 bitrate=  17.6kbits/s speed=0.0191x    frame=   68 fps=3.7 q=40.0 size=       1kB time=00:00:00.62 bitrate=   9.4kbits/s speed=0.0341x    frame=   72 fps=3.8 q=39.0 size=       1kB time=00:00:00.79 bitrate=   7.4kbits/s speed=0.042x    frame=   77 fps=3.9 q=39.0 size=       1kB time=00:00:01.00 bitrate=   5.9kbits/s speed=0.0513x    frame=   81 fps=4.0 q=38.0 size=       1kB time=00:00:01.16 bitrate=   5.0kbits/s speed=0.0583x    frame=   85 fps=4.1 q=38.0 size=       1kB time=00:00:01.33 bitrate=   4.4kbits/s speed=0.0648x    frame=   90 fps=4.2 q=37.0 size=       1kB time=00:00:01.54 bitrate=   3.8kbits/s speed=0.0726x    frame=   94 fps=4.3 q=37.0 size=       1kB time=00:00:01.70 bitrate=   3.4kbits/s speed=0.0785x    frame=   99 fps=4.4 q=36.0 size=       1kB time=00:00:01.91 bitrate=   3.1kbits/s speed=0.0857x    frame=  104 fps=4.5 q=36.0 size=       1kB time=00:00:02.12 bitrate=   2.8kbits/s speed=0.0917x    frame=  108 fps=4.6 q=36.0 size=       1kB time=00:00:02.29 bitrate=   2.6kbits/s speed=0.0968x    frame=  111 fps=4.6 q=36.0 size=    5172kB time=00:00:02.41 bitrate=17523.9kbits/s speed=0.0999x    frame=  114 fps=4.6 q=36.0 size=    5172kB time=00:00:02.54 bitrate=16662.5kbits/s speed=0.103x    frame=  117 fps=4.6 q=36.0 size=    5172kB time=00:00:02.66 bitrate=15881.8kbits/s speed=0.106x    frame=  121 fps=4.7 q=35.0 size=    5172kB time=00:00:02.83 bitrate=14951.5kbits/s speed=0.11x    frame=  124 fps=4.7 q=35.0 size=    5172kB time=00:00:02.95 bitrate=14319.9kbits/s speed=0.112x    frame=  128 fps=4.8 q=35.0 size=    5172kB time=00:00:03.12 bitrate=13554.9kbits/s speed=0.116x    frame=  131 fps=4.8 q=35.0 size=    5172kB time=00:00:03.25 bitrate=13033.7kbits/s speed=0.119x    frame=  135 fps=4.8 q=35.0 size=    5172kB time=00:00:03.41 bitrate=12396.9kbits/s speed=0.122x    frame=  139 fps=4.9 q=34.0 size=    5172kB time=00:00:03.58 bitrate=11822.7kbits/s speed=0.125x    frame=  142 fps=4.9 q=32.0 size=    5172kB time=00:00:03.70 bitrate=11424.3kbits/s speed=0.127x    frame=  147 fps=4.9 q=34.0 size=    6870kB time=00:00:03.91 bitrate=14364.8kbits/s speed=0.131x    frame=  153 fps=5.0 q=34.0 size=    6870kB time=00:00:04.16 bitrate=13503.1kbits/s speed=0.136x    frame=  159 fps=5.1 q=34.0 size=    6870kB time=00:00:04.41 bitrate=12739.0kbits/s speed=0.142x    frame=  162 fps=5.1 q=34.0 size=    6870kB time=00:00:04.54 bitrate=12388.5kbits/s speed=0.143x    frame=  168 fps=5.2 q=33.0 size=    6870kB time=00:00:04.79 bitrate=11742.4kbits/s speed=0.147x    frame=  172 fps=5.2 q=33.0 size=    6870kB time=00:00:04.95 bitrate=11349.3kbits/s speed=0.15x    frame=  176 fps=5.2 q=33.0 size=    6870kB time=00:00:05.12 bitrate=10979.5kbits/s speed=0.152x    frame=  179 fps=5.2 q=33.0 size=    6870kB time=00:00:05.25 bitrate=10718.2kbits/s speed=0.153x    frame=  185 fps=5.3 q=33.0 size=    6870kB time=00:00:05.50 bitrate=10231.1kbits/s speed=0.157x    frame=  189 fps=5.3 q=33.0 size=    6870kB time=00:00:05.66 bitrate=9929.6kbits/s speed=0.16x    frame=  194 fps=5.3 q=33.0 size=    6870kB time=00:00:05.87 bitrate=9578.1kbits/s speed=0.162x    frame=  200 fps=5.4 q=33.0 size=    6870kB time=00:00:06.12 bitrate=9187.3kbits/s speed=0.166x    frame=  203 fps=5.4 q=33.0 size=    6870kB time=00:00:06.25 bitrate=9003.5kbits/s speed=0.167x    frame=  210 fps=5.5 q=33.0 size=   10198kB time=00:00:06.54 bitrate=12767.8kbits/s speed=0.172x    frame=  213 fps=5.5 q=33.0 size=   10198kB time=00:00:06.66 bitrate=12528.4kbits/s speed=0.173x    frame=  217 fps=5.6 q=33.0 size=   10198kB time=00:00:06.83 bitrate=12224.1kbits/s speed=0.175x    frame=  221 fps=5.6 q=32.0 size=   10198kB time=00:00:07.00 bitrate=11932.5kbits/s speed=0.177x    frame=  224 fps=5.6 q=32.0 size=   10198kB time=00:00:07.12 bitrate=11723.2kbits/s speed=0.177x    frame=  228 fps=5.6 q=32.0 size=   10198kB time=00:00:07.29 bitrate=11454.8kbits/s speed=0.179x    frame=  233 fps=5.6 q=32.0 size=   10198kB time=00:00:07.50 bitrate=11137.1kbits/s speed=0.181x    frame=  240 fps=5.7 q=32.0 size=   11650kB time=00:00:07.79 bitrate=12246.1kbits/s speed=0.185x    frame=  246 fps=5.8 q=32.0 size=   11650kB time=00:00:08.04 bitrate=11865.4kbits/s speed=0.188x    frame=  249 fps=5.8 q=32.0 size=   11650kB time=00:00:08.16 bitrate=11683.8kbits/s speed=0.189x    frame=  254 fps=5.8 q=32.0 size=   11650kB time=00:00:08.37 bitrate=11393.7kbits/s speed=0.191x    frame=  258 fps=5.8 q=32.0 size=   11650kB time=00:00:08.54 bitrate=11171.0kbits/s speed=0.192x    frame=  264 fps=5.8 q=32.0 size=   11650kB time=00:00:08.79 bitrate=10853.4kbits/s speed=0.194x    frame=  269 fps=5.9 q=32.0 size=   11650kB time=00:00:09.00 bitrate=10602.6kbits/s speed=0.196x    frame=  275 fps=5.9 q=32.0 size=   11650kB time=00:00:09.25 bitrate=10316.0kbits/s speed=0.198x    frame=  280 fps=5.9 q=32.0 size=   11650kB time=00:00:09.45 bitrate=10089.2kbits/s speed= 0.2x    frame=  284 fps=5.9 q=31.0 size=   11650kB time=00:00:09.62 bitrate=9914.2kbits/s speed=0.201x    frame=  291 fps=6.0 q=31.0 size=   11650kB time=00:00:09.91 bitrate=9622.3kbits/s speed=0.203x    frame=  298 fps=6.0 q=31.0 size=   11650kB time=00:00:10.20 bitrate=9348.0kbits/s speed=0.206x    frame=  303 fps=6.1 q=31.0 size=   11650kB time=00:00:10.41 bitrate=9160.5kbits/s speed=0.208x    frame=  310 fps=6.1 q=31.0 size=   11650kB time=00:00:10.70 bitrate=8911.5kbits/s speed=0.211x    frame=  312 fps=6.1 q=31.0 size=   11650kB time=00:00:10.79 bitrate=8842.2kbits/s speed=0.21x    frame=  320 fps=6.2 q=30.0 size=   15998kB time=00:00:11.12 bitrate=11779.4kbits/s speed=0.214x    frame=  324 fps=6.2 q=30.0 size=   15998kB time=00:00:11.29 bitrate=11605.2kbits/s speed=0.215x    frame=  330 fps=6.2 q=30.0 size=   15998kB time=00:00:11.54 bitrate=11353.8kbits/s speed=0.217x    frame=  335 fps=6.2 q=30.0 size=   15998kB time=00:00:11.75 bitrate=11152.9kbits/s speed=0.219x    frame=  341 fps=6.3 q=30.0 size=   15998kB time=00:00:12.00 bitrate=10920.5kbits/s speed=0.221x    frame=  347 fps=6.3 q=30.0 size=   15998kB time=00:00:12.25 bitrate=10697.7kbits/s speed=0.223x    frame=  354 fps=6.4 q=30.0 size=   15998kB time=00:00:12.54 bitrate=10448.7kbits/s speed=0.226x    frame=  362 fps=6.4 q=29.0 size=   15998kB time=00:00:12.87 bitrate=10178.4kbits/s speed=0.229x    frame=  370 fps=6.5 q=29.0 size=   15998kB time=00:00:13.20 bitrate=9921.8kbits/s speed=0.232x    frame=  378 fps=6.6 q=29.0 size=   15998kB time=00:00:13.54 bitrate=9677.1kbits/s speed=0.235x    frame=  386 fps=6.6 q=29.0 size=   15998kB time=00:00:13.87 bitrate=9444.9kbits/s speed=0.237x    frame=  394 fps=6.7 q=28.0 size=   15998kB time=00:00:14.20 bitrate=9223.6kbits/s speed=0.24x    frame=  399 fps=6.7 q=28.0 size=   15998kB time=00:00:14.41 bitrate=9089.9kbits/s speed=0.242x    frame=  406 fps=6.7 q=28.0 size=   15998kB time=00:00:14.70 bitrate=8910.0kbits/s speed=0.244x    frame=  414 fps=6.8 q=28.0 size=   20229kB time=00:00:15.04 bitrate=11016.0kbits/s speed=0.247x    frame=  418 fps=6.8 q=28.0 size=   20229kB time=00:00:15.20 bitrate=10895.8kbits/s speed=0.247x    frame=  424 fps=6.8 q=27.0 size=   20229kB time=00:00:15.45 bitrate=10719.6kbits/s speed=0.249x    frame=  428 fps=6.8 q=27.0 size=   20229kB time=00:00:15.62 bitrate=10605.0kbits/s speed=0.249x    frame=  432 fps=6.8 q=27.0 size=   20229kB time=00:00:15.79 bitrate=10492.8kbits/s speed=0.25x    frame=  438 fps=6.8 q=27.0 size=   20229kB time=00:00:16.04 bitrate=10329.3kbits/s speed=0.25x    frame=  444 fps=6.9 q=27.0 size=   20229kB time=00:00:16.29 bitrate=10170.8kbits/s speed=0.252x    frame=  447 fps=6.9 q=27.0 size=   20229kB time=00:00:16.41 bitrate=10093.4kbits/s speed=0.252x    frame=  451 fps=6.8 q=27.0 size=   20229kB time=00:00:16.58 bitrate=9992.4kbits/s speed=0.252x    frame=  457 fps=6.9 q=27.0 size=   20229kB time=00:00:16.83 bitrate=9844.0kbits/s speed=0.252x    frame=  463 fps=6.9 q=27.0 size=   20229kB time=00:00:17.08 bitrate=9699.9kbits/s speed=0.254x    frame=  470 fps=6.9 q=28.0 size=   23891kB time=00:00:17.37 bitrate=11263.4kbits/s speed=0.257x    frame=  474 fps=6.9 q=28.0 size=   23891kB time=00:00:17.54 bitrate=11156.2kbits/s speed=0.256x    frame=  479 fps=6.9 q=28.0 size=   23891kB time=00:00:17.75 bitrate=11025.5kbits/s speed=0.257x    frame=  482 fps=6.9 q=28.0 size=   23891kB time=00:00:17.87 bitrate=10948.4kbits/s speed=0.257x    frame=  489 fps=7.0 q=28.0 size=   23891kB time=00:00:18.16 bitrate=10772.4kbits/s speed=0.26x    frame=  495 fps=7.0 q=28.0 size=   23891kB time=00:00:18.41 bitrate=10626.2kbits/s speed=0.261x    frame=  500 fps=7.0 q=28.0 size=   23891kB time=00:00:18.62 bitrate=10507.5kbits/s speed=0.262x    frame=  500 fps=6.6 q=-1.0 Lsize=   29502kB time=00:00:20.70 bitrate=11670.2kbits/s speed=0.273x    
video:29497kB audio:0kB subtitle:0kB other streams:0kB global headers:0kB muxing overhead: 0.016749%
bench: utime=235.456s
bench: maxrss=1576680kB
[libx264 @ 0x42aa1c0] frame I:8     Avg QP:22.42  size:202645
[libx264 @ 0x42aa1c0] frame P:269   Avg QP:27.68  size: 72585
[libx264 @ 0x42aa1c0] frame B:223   Avg QP:25.33  size: 40617
[libx264 @ 0x42aa1c0] consecutive B-frames: 37.0%  8.4%  6.6% 48.0%
[libx264 @ 0x42aa1c0] mb I  I16..4: 19.8% 73.4%  6.8%
[libx264 @ 0x42aa1c0] mb P  I16..4: 17.5% 24.0%  0.6%  P16..4: 29.1%  4.1%  1.3%  0.0%  0.0%    skip:23.4%
[libx264 @ 0x42aa1c0] mb B  I16..4:  1.4%  2.9%  0.3%  B16..8: 33.4%  3.1%  0.5%  direct: 1.7%  skip:56.6%  L0:43.3% L1:52.5% BI: 4.2%
[libx264 @ 0x42aa1c0] final ratefactor: 24.58
[libx264 @ 0x42aa1c0] 8x8 transform intra:58.5% inter:89.4%
[libx264 @ 0x42aa1c0] coded y,uvDC,uvAC intra: 22.1% 30.5% 3.7% inter: 9.9% 10.4% 0.2%
[libx264 @ 0x42aa1c0] i16 v,h,dc,p: 24% 30%  8% 38%
[libx264 @ 0x42aa1c0] i8 v,h,dc,ddl,ddr,vr,hd,vl,hu: 24% 19% 31%  4%  4%  4%  5%  4%  4%
[libx264 @ 0x42aa1c0] i4 v,h,dc,ddl,ddr,vr,hd,vl,hu: 22% 23% 10%  6% 10%  8% 11%  5%  5%
[libx264 @ 0x42aa1c0] i8c dc,h,v,p: 67% 16% 15%  2%
[libx264 @ 0x42aa1c0] Weighted P-Frames: Y:1.1% UV:0.7%
[libx264 @ 0x42aa1c0] ref P L0: 69.1% 18.8%  8.8%  3.4%  0.0%
[libx264 @ 0x42aa1c0] ref B L0: 92.7%  6.0%  1.3%
[libx264 @ 0x42aa1c0] ref B L1: 97.6%  2.4%
[libx264 @ 0x42aa1c0] kb/s:11598.37
